<svg width="91" height="94" viewBox="0 0 91 94" fill="none" xmlns="http://www.w3.org/2000/svg"><path fill-rule="evenodd" clip-rule="evenodd" d="M55.905.569c0 .87-1.175 2.352-2.61 3.293l-2.61 1.71 2.204.816c1.213.448 2.44 1.714 2.727 2.813.68 2.598 1.578 2.528 2.802-.22.543-1.22 2.112-2.525 3.487-2.901s1.893-.727 1.15-.782c-.741-.055-2.653-1.498-4.25-3.206-2.003-2.146-2.9-2.616-2.9-1.523M31.677 2.543c-33.6 11.45-42.573 53.464-16.691 78.15C25.563 90.782 40.696 95.67 54.112 93.33c16.612-2.9 31.972-16.071 36.305-31.131.56-1.947.069-1.615-2.222 1.5-4.778 6.499-12.981 13.23-19.088 15.664-4.501 1.794-7.703 2.278-15.202 2.297-8.624.021-10.12-.27-16.223-3.154C15.362 67.958 6.89 43.018 18.089 20.834c3.524-6.981 10.776-14.411 16.65-17.06 2.29-1.033 4.166-2.26 4.166-2.727 0-1.058.68-1.2-7.228 1.497M74.455 14.04c-.378 1.191-1.894 2.821-3.37 3.623-2.601 1.413-2.612 1.457-.382 1.495 1.608.029 2.693.979 3.61 3.163l1.314 3.122.64-2.555c.354-1.407 1.616-2.866 2.807-3.244l2.164-.686-2.036-1.63c-1.12-.897-2.491-2.49-3.048-3.543-.972-1.84-1.037-1.83-1.7.255m10.232 19.317c-1.374 1.422-1.453 1.935-.397 2.56.727.43 1.5 1.325 1.718 1.988.258.782 1.14.43 2.519-1.009l2.12-2.213-2.12-1.553c-1.937-1.416-2.272-1.397-3.84.227m-45.293 1.622c-3.307 1.6-8.482 5.233-11.5 8.072l-5.49 5.164 5.5 5.008c11.905 10.84 22.354 13.038 34.19 7.194 3.472-1.712 8.477-5.32 11.125-8.016l4.814-4.901-5.27-4.739c-7.21-6.482-13.972-9.733-21.34-10.26-5.126-.365-6.91.002-12.03 2.478m20.018 3.084c2.204 1 6.135 3.662 8.735 5.913l4.729 4.091-4.16 3.561c-12.478 10.682-24.947 10.67-36.793-.033l-3.892-3.516 3.995-3.609c8.704-7.864 18.92-10.254 27.386-6.407m-14.482 4.11c-3.112 3.113-3.597 6.782-1.303 9.863 4.21 5.657 11.104 5.072 14.118-1.198 1.57-3.268.132-8.049-2.911-9.678-2.973-1.59-7.793-1.097-9.904 1.014" fill="#000"/></svg>